<?xml version="1.0" standalone="no"?>
<!DOCTYPE svg PUBLIC "-//W3C//DTD SVG 20010904//EN"
 "http://www.w3.org/TR/2001/REC-SVG-20010904/DTD/svg10.dtd">
<svg version="1.0" xmlns="http://www.w3.org/2000/svg"
 width="1280.000000pt" height="1057.000000pt" viewBox="0 0 1280.000000 1057.000000"
 preserveAspectRatio="xMidYMid meet">
<metadata>
Created by potrace 1.15, written by Peter Selinger 2001-2017
</metadata>
<g transform="translate(0.000000,1057.000000) scale(0.100000,-0.100000)"
fill="#000000" stroke="none">
<path d="M8865 10560 c-638 -65 -1230 -321 -1756 -757 -134 -111 -381 -359
-493 -493 -101 -122 -232 -304 -329 -457 -84 -134 -274 -512 -351 -698 -291
-710 -430 -1502 -396 -2263 52 -1139 420 -2146 1089 -2982 128 -160 379 -423
511 -535 713 -606 1671 -886 2550 -744 285 45 517 121 805 263 398 197 675
395 985 706 309 308 545 635 757 1046 297 577 468 1179 540 1894 21 217 24
780 5 970 -74 730 -231 1302 -512 1875 -314 639 -738 1154 -1285 1561 -433
322 -932 525 -1470 599 -134 19 -526 27 -650 15z m572 -1889 c329 -73 609
-235 883 -510 238 -238 417 -516 545 -844 255 -654 284 -1408 79 -2085 -159
-526 -474 -996 -863 -1288 -248 -186 -526 -274 -866 -274 -469 0 -888 181
-1185 511 -300 334 -478 640 -609 1043 -115 352 -157 654 -148 1060 9 408 73
735 210 1076 227 566 560 955 1012 1183 150 75 271 114 475 151 14 2 104 3
200 1 130 -2 199 -9 267 -24z"/>
<path d="M2692 10514 c-46 -23 -240 -219 -1344 -1358 -931 -961 -1297 -1345
-1316 -1381 -23 -43 -27 -62 -27 -135 0 -73 4 -92 27 -136 18 -35 200 -231
598 -647 641 -670 619 -651 750 -652 142 0 118 -19 650 511 262 261 479 474
483 474 4 0 8 -1218 9 -2707 l3 -2708 29 -53 c33 -60 76 -101 139 -134 l42
-23 955 0 955 0 54 30 c31 17 71 51 93 78 75 95 68 -320 66 4397 l-3 4245 -28
57 c-16 32 -48 75 -73 97 -85 75 -28 71 -1073 71 l-936 -1 -53 -25z"/>
</g>
</svg>
