<?xml version="1.0" standalone="no"?>
<!DOCTYPE svg PUBLIC "-//W3C//DTD SVG 20010904//EN"
 "http://www.w3.org/TR/2001/REC-SVG-20010904/DTD/svg10.dtd">
<svg version="1.0" xmlns="http://www.w3.org/2000/svg"
 width="1280.000000pt" height="1270.000000pt" viewBox="0 0 1280.000000 1270.000000"
 preserveAspectRatio="xMidYMid meet">
<metadata>
Created by potrace 1.15, written by Peter Selinger 2001-2017
</metadata>
<g transform="translate(0.000000,1270.000000) scale(0.100000,-0.100000)"
fill="#000000" stroke="none">
<path d="M6191 12690 c-57 -5 -181 -21 -275 -35 -979 -150 -1848 -394 -2361
-664 -536 -282 -1227 -737 -1610 -1058 -131 -110 -286 -266 -351 -353 -22 -30
-86 -116 -141 -190 -55 -74 -153 -191 -218 -260 -64 -69 -141 -161 -170 -205
-85 -130 -548 -1034 -670 -1310 -191 -431 -296 -801 -349 -1230 -35 -278 -41
-412 -40 -885 0 -618 14 -801 109 -1410 24 -157 58 -384 75 -505 37 -267 62
-363 135 -531 32 -71 92 -231 135 -355 43 -125 92 -259 109 -299 118 -277 535
-837 1032 -1385 322 -355 815 -796 1200 -1072 373 -267 753 -460 1108 -563
408 -118 948 -235 1365 -294 672 -97 1151 -109 1831 -46 1470 136 2377 486
3255 1254 307 269 548 526 991 1056 498 597 699 932 981 1634 302 752 518
2050 458 2751 -83 967 -541 2213 -1155 3140 -232 351 -530 723 -765 954 -169
167 -300 270 -730 579 -124 88 -281 201 -350 251 -68 49 -170 117 -225 149
-270 161 -833 438 -1085 535 -424 163 -927 276 -1480 332 -180 19 -658 27
-809 15z m899 -325 c635 -71 1458 -318 1810 -543 83 -53 210 -115 355 -172
241 -95 387 -182 620 -366 127 -101 432 -403 488 -484 104 -149 281 -433 316
-504 43 -88 185 -523 231 -706 97 -382 106 -1046 19 -1370 -35 -129 -78 -204
-202 -350 -108 -128 -174 -188 -242 -223 -116 -59 -283 -2 -313 107 -16 57 -1
117 72 289 90 213 101 271 101 542 0 168 -5 244 -19 320 -26 149 -70 314 -120
460 -85 249 -339 817 -417 932 -44 65 -530 546 -654 646 -243 196 -457 312
-770 415 -115 38 -257 91 -315 117 -57 26 -127 51 -155 56 -27 5 -92 16 -143
24 -60 10 -128 31 -195 59 -142 61 -188 73 -377 96 -91 12 -246 34 -345 50
-1275 206 -1771 210 -2540 20 -218 -54 -473 -132 -770 -235 -133 -46 -248 -95
-385 -164 -194 -98 -340 -159 -340 -142 0 26 184 161 348 255 136 78 484 247
677 329 383 162 538 211 938 293 150 30 362 77 472 104 441 107 681 145 1045
164 142 8 683 -5 810 -19z m-1520 -700 c724 -65 1438 -183 1870 -309 124 -36
330 -96 457 -133 l233 -67 37 -91 c34 -84 37 -97 37 -196 1 -103 0 -108 -37
-180 -21 -42 -70 -111 -113 -159 -107 -122 -127 -167 -135 -310 -4 -63 -7
-117 -8 -119 -3 -11 -111 17 -228 60 -98 36 -183 58 -321 83 -103 19 -252 49
-332 65 -287 60 -507 81 -854 81 -175 0 -188 1 -181 18 14 34 35 148 35 187 0
113 -50 253 -136 381 -88 131 -141 184 -251 249 -54 32 -151 94 -216 137 -131
88 -178 111 -258 127 -105 21 -312 31 -461 23 -80 -4 -184 -5 -230 -1 -45 5
-107 9 -135 10 -89 4 -76 14 112 87 179 71 275 82 655 77 157 -2 364 -11 460
-20z m-1013 -340 c411 -52 644 -115 837 -227 88 -51 246 -206 309 -303 97
-151 101 -246 14 -322 -74 -65 -158 -67 -373 -7 -274 75 -662 127 -959 128
-238 1 -337 -8 -587 -55 -452 -84 -824 -219 -1088 -395 -267 -178 -664 -569
-1025 -1009 -351 -428 -693 -933 -859 -1268 -139 -282 -348 -926 -425 -1312
-58 -291 -87 -638 -71 -865 14 -199 12 -426 -4 -485 l-13 -50 -7 45 c-4 25
-18 176 -32 335 -13 160 -30 344 -36 410 -21 234 2 732 53 1130 61 479 139
809 295 1239 366 1008 922 1819 1583 2309 356 265 914 516 1417 638 378 91
625 108 971 64z m4106 -415 c132 -140 226 -307 301 -534 113 -341 111 -527 -5
-660 -94 -106 -175 -100 -244 18 -56 95 -58 108 -65 456 -10 406 -15 448 -87
615 -32 74 -58 151 -61 179 l-5 49 52 -29 c29 -15 80 -57 114 -94z m-231 -317
c19 -55 16 -341 -6 -468 -9 -54 -19 -101 -21 -103 -2 -2 -32 -6 -67 -9 -124
-9 -196 60 -206 197 -11 163 81 346 201 401 64 29 83 25 99 -18z m885 -142
c120 -121 227 -302 290 -489 30 -91 37 -124 41 -223 4 -102 2 -126 -18 -190
-12 -41 -35 -130 -51 -198 -16 -70 -40 -143 -54 -167 -25 -43 -26 -44 -53 -30
-39 20 -96 84 -121 133 -47 95 -54 143 -57 423 l-2 265 -40 186 c-22 103 -54
230 -71 283 -17 53 -31 103 -31 112 0 27 97 -34 167 -105z m-4843 -76 c139
-25 226 -84 226 -155 -1 -42 -35 -103 -94 -167 -136 -147 -263 -151 -567 -17
-179 79 -346 143 -462 178 -61 19 -113 39 -115 45 -7 20 49 32 347 73 163 22
319 43 346 48 82 12 234 10 319 -5z m586 -14 c30 -12 64 -28 74 -36 25 -19 11
-36 -60 -71 -57 -28 -136 -34 -173 -14 -27 14 -49 57 -57 110 l-7 43 84 -5
c50 -4 107 -15 139 -27z m6076 -238 c229 -229 689 -1045 937 -1663 200 -501
323 -997 379 -1530 20 -196 17 -933 -5 -1125 -58 -500 -157 -853 -340 -1210
-145 -282 -304 -494 -566 -756 -229 -227 -591 -516 -789 -626 -195 -109 -509
-223 -817 -295 -82 -19 -126 -23 -250 -22 -135 0 -158 3 -232 27 -96 32 -188
91 -223 143 -37 55 -41 165 -8 214 27 42 92 76 168 90 30 5 149 19 265 30 240
24 367 47 513 96 277 91 443 205 752 514 562 560 848 1132 1057 2105 23 109
27 153 27 275 -1 286 -23 1046 -33 1123 -27 208 -56 339 -126 562 -24 77 -82
275 -129 440 -134 474 -159 540 -405 1073 -114 247 -251 561 -251 576 0 19 34
0 76 -41z m-4341 -12 c395 -73 1078 -270 1340 -387 292 -131 596 -363 865
-661 63 -70 178 -193 256 -273 106 -109 162 -178 230 -280 255 -381 325 -532
385 -835 134 -673 199 -1157 199 -1479 0 -136 -6 -194 -35 -374 -165 -1008
-487 -1740 -990 -2247 -229 -232 -600 -505 -923 -678 -359 -194 -828 -378
-1107 -435 -190 -39 -297 -45 -700 -38 -530 9 -594 17 -868 116 -89 32 -252
81 -362 110 -491 126 -707 205 -890 324 -70 46 -174 144 -578 548 -271 271
-519 524 -551 562 -121 143 -212 306 -309 551 -226 570 -309 1004 -309 1620
-1 581 60 853 354 1590 55 138 126 302 159 365 158 310 514 765 812 1038 232
212 461 362 867 566 304 153 359 176 513 216 303 79 647 109 1187 106 297 -2
349 -5 455 -25z m-3230 -46 c97 -32 338 -159 360 -188 26 -37 27 -149 1 -175
-29 -29 -151 -28 -296 2 -69 15 -192 41 -275 58 -134 28 -168 32 -320 32 -164
0 -174 -1 -274 -33 -119 -37 -191 -52 -191 -40 0 19 92 84 189 133 140 71 461
197 576 225 54 14 169 7 230 -14z m6361 -530 c122 -255 195 -712 140 -872 -20
-60 -64 -103 -104 -103 -40 1 -102 33 -139 71 -85 90 -100 210 -59 459 15 85
33 233 41 329 8 95 18 191 21 213 l7 39 25 -23 c14 -13 44 -64 68 -113z
m-6715 111 c125 -27 216 -93 260 -190 26 -58 24 -98 -7 -135 -42 -50 -112 -66
-289 -65 -161 0 -284 15 -535 65 -203 41 -269 38 -428 -20 -63 -23 -118 -41
-124 -41 -20 0 35 61 100 109 167 126 502 252 757 284 72 9 205 6 266 -7z
m5909 -180 c0 -19 11 -78 25 -132 14 -53 25 -103 23 -110 -2 -8 -51 23 -121
76 l-118 88 38 31 c36 30 128 81 145 81 4 0 8 -15 8 -34z m2134 -298 c19 -97
176 -625 246 -828 174 -503 194 -600 221 -1065 23 -404 22 -750 -4 -865 -36
-155 -100 -266 -274 -471 -54 -63 -111 -132 -128 -152 -29 -35 -33 -36 -145
-52 -63 -9 -167 -28 -230 -42 -102 -22 -144 -26 -368 -30 l-254 -5 4 338 c4
444 -7 662 -48 979 -19 143 -37 299 -41 347 -7 101 0 110 68 88 34 -12 57 -11
151 3 173 26 289 89 436 239 175 178 257 346 326 676 35 165 56 345 56 478 0
96 -4 125 -30 209 -33 109 -35 123 -18 160 15 34 24 32 32 -7z m-8678 -9 c178
-18 457 -100 495 -146 19 -22 14 -113 -8 -164 -20 -44 -23 -46 -84 -60 -35 -8
-109 -14 -164 -13 -157 1 -252 48 -345 169 -26 33 -78 81 -122 112 -43 30 -85
64 -93 76 -15 21 -14 22 12 28 46 11 193 10 309 -2z m-534 -200 c129 -36 246
-108 358 -220 39 -38 70 -74 70 -79 0 -11 -15 -15 -127 -35 -109 -20 -165 -51
-218 -122 -43 -58 -69 -141 -62 -195 9 -67 47 -112 132 -154 63 -31 85 -37
142 -37 112 -1 221 63 269 159 16 33 19 58 17 168 l-2 128 32 -6 c18 -3 78 -8
135 -12 56 -4 105 -10 107 -15 3 -4 -12 -36 -32 -70 -21 -35 -99 -185 -173
-334 l-135 -270 -85 5 c-47 3 -143 5 -215 5 -141 0 -164 -7 -232 -66 -18 -16
-115 -69 -215 -118 -414 -204 -609 -377 -885 -783 -53 -78 -135 -191 -181
-252 -81 -106 -84 -109 -78 -71 12 68 64 249 146 510 43 138 93 304 111 370
28 108 48 151 196 435 91 173 187 344 214 380 27 36 83 117 125 180 42 63 147
209 233 323 l156 208 63 -6 c35 -4 95 -16 134 -26z m7493 -61 c-14 -84 -15
-84 -80 -18 l-59 60 73 0 73 0 -7 -42z m-7096 -462 c32 -33 34 -38 28 -90 -3
-31 -8 -60 -12 -66 -10 -16 -110 -12 -155 6 -39 16 -40 17 -40 66 0 44 4 54
34 84 48 48 99 48 145 0z m7651 -129 c0 -73 -20 -133 -65 -191 -15 -19 -16
-19 -57 10 -53 37 -88 102 -88 163 0 25 4 52 9 59 9 14 83 29 159 31 l42 1 0
-73z m-7781 -693 c29 -6 31 -9 31 -53 -1 -91 -34 -134 -265 -332 -410 -351
-753 -1084 -865 -1843 -59 -402 -62 -764 -10 -1128 48 -326 148 -654 269 -880
27 -51 64 -140 81 -198 61 -199 109 -285 370 -651 220 -309 305 -415 469 -584
75 -77 179 -196 231 -264 220 -288 278 -347 472 -480 57 -39 139 -100 183
-136 44 -36 114 -93 155 -126 41 -34 152 -105 245 -159 94 -53 169 -101 167
-106 -1 -5 -33 -9 -70 -9 -91 0 -157 33 -337 170 -77 59 -288 213 -470 343
-540 387 -748 557 -917 750 -449 510 -531 608 -565 676 -53 107 -133 221 -228
326 -47 52 -105 124 -128 160 -23 35 -102 154 -176 265 -145 216 -165 254
-235 448 -98 270 -169 556 -202 814 -62 477 42 1094 276 1633 151 350 241 492
450 712 289 306 744 607 980 648 25 4 48 8 51 9 4 0 21 -2 38 -5z m-13 -496
c-3 -13 -12 -72 -21 -133 -26 -178 -21 -167 -63 -159 -47 7 -108 30 -150 56
l-32 20 27 50 c31 58 107 129 172 163 59 31 73 31 67 3z m-268 -402 c15 -8 36
-23 46 -35 22 -24 31 -19 -114 -59 -115 -32 -124 -29 -100 29 29 68 105 98
168 65z m97 -295 c81 -37 115 -105 115 -230 0 -135 -47 -239 -137 -305 -26
-20 -113 -63 -193 -97 -160 -68 -215 -99 -305 -168 -78 -60 -115 -84 -122 -77
-10 10 19 159 49 251 64 196 172 388 287 508 120 125 213 161 306 118z m9450
-738 c-14 -84 -29 -109 -119 -203 -50 -53 -119 -131 -154 -173 -120 -147 -347
-324 -523 -406 -272 -128 -434 -83 -480 130 -20 94 19 219 99 318 56 68 93 81
252 81 117 0 161 5 326 39 203 41 248 59 383 146 75 48 187 105 209 105 9 0
11 -10 7 -37z m-9470 -139 c68 -32 95 -118 95 -296 0 -122 -11 -170 -48 -211
-9 -11 -66 -43 -127 -73 -130 -63 -206 -123 -307 -242 -62 -72 -238 -243 -238
-231 0 2 -9 78 -20 169 -31 260 -24 349 40 503 46 111 85 163 173 233 172 135
339 193 432 148z m9159 -641 c-12 -56 -87 -195 -143 -265 -113 -142 -245 -253
-406 -341 -55 -30 -138 -82 -185 -116 -47 -34 -132 -84 -190 -112 -62 -30
-124 -68 -151 -94 -188 -176 -384 47 -259 295 43 86 126 165 226 217 99 51
146 65 359 103 300 53 413 91 523 176 120 93 217 164 225 164 4 0 5 -12 1 -27z
m-8864 -84 c88 -156 -57 -510 -279 -685 -55 -43 -111 -71 -111 -55 0 4 50 80
111 167 61 87 126 191 144 230 42 88 74 211 82 315 7 90 15 95 53 28z m-252
-73 c4 -76 -19 -160 -77 -282 -113 -236 -311 -473 -464 -555 -32 -17 -61 -28
-64 -25 -3 3 -8 39 -11 81 -5 74 -4 75 36 137 22 35 73 122 112 193 112 201
176 292 269 386 79 78 161 134 186 126 6 -2 11 -29 13 -61z m8035 39 c20 -14
37 -30 37 -36 0 -25 -123 -71 -149 -55 -16 10 7 69 36 93 16 13 30 23 33 23 3
0 22 -11 43 -25z m-7377 -687 c135 -188 196 -263 318 -389 83 -86 159 -170
168 -186 17 -30 17 -31 -12 -72 -17 -22 -62 -67 -101 -99 -80 -65 -123 -123
-144 -196 -8 -28 -33 -114 -56 -190 l-42 -139 22 -96 c12 -53 37 -168 55 -256
40 -191 71 -286 135 -414 51 -102 368 -605 429 -681 64 -81 188 -196 329 -306
76 -59 180 -143 232 -187 51 -43 118 -95 149 -114 80 -52 327 -169 532 -253
96 -39 202 -86 235 -103 57 -30 58 -32 30 -35 -162 -19 -729 239 -1284 585
-507 316 -968 767 -1473 1438 -152 202 -230 323 -366 561 -67 117 -139 240
-162 275 -106 164 -87 304 60 449 79 79 182 148 388 261 181 99 227 139 317
278 36 56 67 101 70 101 2 0 79 -105 171 -232z m7019 -299 c43 -44 102 -79
133 -79 11 0 30 -8 42 -18 22 -18 21 -18 -89 -46 l-110 -29 -28 33 c-52 61
-57 96 -24 159 17 30 32 26 76 -20z m1925 -85 c0 -4 -44 -65 -98 -138 -54 -72
-136 -185 -182 -251 -135 -194 -238 -333 -324 -440 -128 -158 -613 -633 -816
-798 -35 -29 -297 -171 -725 -395 -594 -310 -683 -354 -780 -382 -61 -17 -171
-53 -245 -80 -174 -62 -280 -82 -448 -84 -154 -1 -129 -15 -237 135 -86 121
-310 341 -425 419 -108 73 -185 141 -207 183 -8 16 -25 63 -39 104 -16 50 -43
101 -79 151 -30 41 -55 78 -55 82 0 20 114 50 255 65 83 9 151 35 264 99 53
30 128 65 166 78 102 33 916 484 1038 575 54 40 105 73 112 73 19 0 72 -65
150 -181 72 -108 115 -147 200 -184 71 -32 214 -69 324 -85 201 -30 555 30
816 137 61 25 155 61 210 80 137 48 326 139 416 200 141 96 428 367 535 504
53 69 88 104 117 118 44 22 57 25 57 15z m-8195 -513 c28 -16 95 -68 150 -115
55 -47 123 -97 150 -112 108 -58 245 -156 303 -219 77 -82 114 -153 147 -286
31 -121 61 -181 153 -304 81 -109 346 -382 497 -513 299 -258 494 -375 902
-540 374 -152 611 -215 903 -241 251 -23 1046 -5 1265 28 589 90 1442 349
1889 573 174 87 176 89 681 497 343 277 321 260 310 241 -65 -113 -218 -286
-402 -456 -138 -127 -238 -208 -464 -375 -205 -152 -291 -205 -489 -304 -96
-48 -204 -104 -240 -125 -384 -223 -796 -389 -1076 -434 -204 -33 -843 -118
-1023 -136 -357 -37 -731 -25 -1090 36 -312 52 -546 111 -786 198 -82 30 -204
71 -270 91 -78 25 -171 64 -265 113 -80 41 -208 107 -285 147 -363 185 -577
386 -803 757 -35 56 -115 173 -178 258 -163 221 -224 347 -281 580 -46 183
-30 370 43 529 61 134 152 174 259 112z m7968 -301 c-67 -106 -212 -264 -228
-248 -11 11 60 129 105 176 45 48 115 100 133 101 5 1 1 -12 -10 -29z m-6764
-407 c6 -5 -81 -93 -91 -93 -4 0 -26 16 -47 36 -39 35 -79 113 -67 132 5 8
183 -57 205 -75z m804 -197 c18 -8 46 -26 62 -39 l30 -26 -55 -56 c-56 -56
-104 -80 -150 -73 -24 3 -25 6 -28 97 -2 69 1 97 10 103 21 13 96 9 131 -6z
m-460 -80 c41 -17 82 -64 97 -113 7 -21 44 -125 82 -232 38 -106 66 -196 64
-199 -11 -10 -98 31 -154 72 -76 57 -201 189 -290 306 -68 91 -70 96 -53 113
27 28 131 66 179 67 23 0 57 -6 75 -14z m1437 -25 c0 -17 -77 -106 -107 -123
l-30 -17 -51 61 c-28 34 -50 64 -47 66 2 2 48 8 102 12 54 4 106 8 116 9 9 0
17 -3 17 -8z m-488 -102 c108 -22 172 -79 237 -207 68 -136 251 -616 251 -660
0 -25 -118 -9 -269 38 -156 48 -190 64 -251 118 -25 21 -78 60 -119 86 -100
65 -163 131 -208 223 -36 73 -38 82 -38 172 0 79 4 103 22 136 25 46 67 89
103 105 29 12 192 6 272 -11z m836 -56 c20 -16 47 -47 59 -68 34 -61 92 -274
107 -397 18 -139 19 -144 67 -295 21 -67 39 -127 39 -133 0 -17 -114 -11 -179
9 -114 35 -165 96 -224 266 -19 55 -53 145 -76 200 -86 213 -92 315 -24 396
37 44 78 60 141 56 40 -3 61 -11 90 -34z m532 -526 c92 -44 215 -167 263 -266
55 -109 56 -107 -70 -114 -58 -4 -130 -7 -159 -7 l-53 0 -45 83 c-60 111 -86
192 -86 270 0 35 3 66 6 70 12 11 80 -5 144 -36z"/>
<path d="M7499 11172 c-184 -80 -274 -183 -273 -313 0 -87 36 -162 116 -240
141 -139 333 -170 448 -72 81 70 121 201 101 332 -41 261 -197 378 -392 293z
m125 -167 c47 -22 93 -76 101 -117 3 -18 5 -60 3 -93 l-3 -60 -45 -22 c-95
-48 -211 -19 -250 63 -34 70 -15 136 61 219 44 47 52 48 133 10z"/>
<path d="M5267 9460 c-116 -30 -184 -104 -224 -242 -24 -88 -28 -333 -8 -598
25 -324 23 -1086 -6 -1965 -16 -515 -22 -927 -26 -1780 -4 -1066 -4 -1114 -24
-1215 -11 -58 -19 -132 -17 -164 l3 -60 55 -12 c30 -7 113 -19 183 -25 231
-23 459 20 530 99 10 10 20 42 24 70 5 44 1 59 -31 124 -20 40 -40 98 -46 128
-19 104 -30 407 -40 1115 -8 530 -15 737 -26 815 -8 58 -19 211 -25 340 -5
129 -16 303 -24 386 -37 373 -41 826 -15 1724 11 355 24 505 74 835 19 127 37
260 41 297 7 67 6 68 -21 78 -122 47 -298 70 -377 50z"/>
<path d="M6731 9285 c-212 -40 -323 -130 -367 -300 -18 -69 -26 -223 -17 -324
l8 -85 115 -22 c63 -13 125 -23 137 -23 16 -1 48 38 145 175 l123 176 75 -4
c182 -11 306 -132 367 -358 24 -91 24 -284 -1 -365 -54 -180 -173 -296 -391
-381 -38 -15 -74 -31 -79 -35 -6 -5 2 -85 19 -198 l28 -190 46 -15 c25 -9 104
-22 174 -31 71 -8 157 -25 190 -36 128 -43 231 -127 255 -208 7 -21 12 -83 12
-137 0 -55 11 -198 25 -319 51 -440 55 -499 64 -876 30 -1270 -116 -1844 -476
-1867 -90 -6 -151 18 -226 87 l-61 58 112 67 c129 77 125 68 92 206 -40 166
-129 298 -237 351 -38 19 -64 24 -128 24 -98 0 -153 -24 -223 -99 -91 -97
-128 -212 -119 -376 7 -128 32 -221 96 -356 116 -242 226 -341 442 -395 110
-28 286 -24 371 10 222 86 490 374 658 705 206 407 319 912 336 1506 13 431
-39 865 -142 1178 -58 179 -250 528 -342 625 -42 44 -79 65 -172 97 -36 12
-84 33 -107 46 l-42 24 28 49 c16 27 67 104 114 172 92 135 116 177 141 256
41 125 38 335 -8 516 -85 335 -300 571 -598 658 -95 28 -327 35 -437 14z"/>
<path d="M10630 6455 c-46 -21 -78 -52 -102 -99 -53 -103 -73 -217 -57 -314
40 -228 301 -287 470 -105 70 75 84 106 84 193 0 63 -5 84 -29 133 -33 65
-112 144 -176 177 -57 29 -144 36 -190 15z m143 -213 c29 -32 47 -90 47 -154
0 -112 -6 -118 -103 -102 -34 6 -38 10 -52 57 -27 91 -15 140 45 191 37 31 42
31 63 8z"/>
<path d="M2360 3875 c-60 -19 -146 -80 -186 -132 -91 -119 -52 -341 71 -410
64 -36 139 -48 218 -34 160 27 237 117 224 261 -14 155 -129 306 -247 323 -19
3 -55 -1 -80 -8z m61 -242 c35 -21 35 -24 5 -60 -20 -24 -27 -26 -47 -16 -14
6 -31 23 -39 38 -13 25 -13 28 5 41 25 18 41 18 76 -3z"/>
<path d="M7760 2287 c-83 -19 -125 -49 -156 -113 -24 -49 -26 -63 -22 -139 4
-71 10 -95 41 -159 45 -90 112 -160 186 -194 149 -68 336 6 417 165 26 52 29
68 29 153 0 78 -4 102 -22 135 -30 57 -79 100 -148 131 -51 24 -75 28 -165 31
-59 1 -129 -3 -160 -10z m251 -218 c38 -18 69 -34 69 -36 0 -2 -7 -33 -16 -68
-18 -72 -30 -81 -96 -70 -74 13 -157 112 -158 189 l0 29 66 -6 c43 -4 91 -18
135 -38z"/>
</g>
</svg>
