<?xml version="1.0" standalone="no"?>
<!DOCTYPE svg PUBLIC "-//W3C//DTD SVG 20010904//EN"
 "http://www.w3.org/TR/2001/REC-SVG-20010904/DTD/svg10.dtd">
<svg version="1.0" xmlns="http://www.w3.org/2000/svg"
 width="832.000000pt" height="1280.000000pt" viewBox="0 0 832.000000 1280.000000"
 preserveAspectRatio="xMidYMid meet">
<metadata>
Created by potrace 1.15, written by Peter Selinger 2001-2017
</metadata>
<g transform="translate(0.000000,1280.000000) scale(0.100000,-0.100000)"
fill="#000000" stroke="none">
<path d="M1650 12793 c-36 -2 -69 -8 -74 -13 -4 -4 -12 -44 -17 -87 -4 -43
-15 -136 -24 -208 -9 -71 -20 -166 -25 -210 -9 -80 -21 -183 -40 -350 -5 -49
-17 -146 -25 -215 -16 -127 -29 -240 -45 -385 -16 -145 -29 -258 -45 -385 -8
-69 -20 -165 -25 -215 -19 -167 -31 -270 -40 -350 -5 -44 -16 -138 -25 -210
-16 -127 -25 -205 -46 -390 -39 -341 -45 -398 -64 -550 -16 -131 -29 -244 -45
-390 -9 -83 -17 -154 -45 -385 -19 -157 -40 -338 -64 -555 -5 -49 -17 -148
-26 -220 -17 -140 -30 -250 -45 -385 -11 -98 -23 -201 -45 -385 -20 -162 -31
-262 -44 -389 -13 -121 -7 -135 77 -172 68 -31 64 -30 257 -104 11 -4 61 -24
110 -44 50 -20 98 -36 108 -36 10 0 115 99 237 223 121 122 266 259 323 303
288 228 554 360 992 493 95 29 325 76 445 90 218 27 277 31 426 31 427 0 787
-75 1111 -231 324 -156 633 -415 861 -722 29 -40 59 -79 65 -87 110 -141 290
-500 360 -720 123 -385 171 -718 171 -1195 1 -411 -35 -831 -101 -1190 -16
-86 -47 -225 -65 -290 -24 -87 -102 -321 -110 -329 -4 -6 -8 -16 -8 -23 0 -21
-176 -389 -240 -503 -60 -105 -198 -306 -276 -400 -293 -357 -662 -613 -1072
-745 -123 -40 -133 -43 -207 -60 -241 -56 -282 -60 -625 -60 -492 1 -704 30
-1075 146 -166 52 -367 140 -542 237 -66 37 -249 163 -287 198 -27 26 -28 30
-22 86 4 33 11 69 15 81 5 12 14 45 19 72 6 28 23 102 37 165 14 63 30 134 36
158 5 23 13 61 19 85 18 80 59 282 69 342 30 175 39 428 20 531 -15 76 -85
227 -146 312 -92 130 -242 259 -364 316 -174 81 -462 127 -652 106 -229 -26
-353 -78 -475 -198 -144 -141 -228 -290 -299 -532 -28 -94 -28 -97 -28 -380 0
-239 3 -297 18 -362 51 -217 128 -397 249 -587 34 -53 65 -98 68 -101 3 -3 18
-23 34 -45 25 -34 141 -170 171 -200 20 -20 181 -171 221 -206 23 -21 90 -73
150 -118 60 -44 114 -84 119 -89 26 -21 247 -160 310 -194 90 -50 306 -157
370 -184 28 -12 75 -32 105 -44 30 -12 64 -26 75 -30 33 -14 198 -71 230 -80
17 -5 64 -18 105 -30 120 -34 260 -70 320 -81 30 -6 75 -15 100 -19 216 -41
328 -58 469 -69 56 -5 97 -13 99 -19 5 -16 789 -17 794 -1 2 6 56 12 143 15
186 6 401 33 585 74 25 6 70 14 100 20 30 5 100 21 155 35 55 15 116 30 135
35 19 4 60 16 90 25 135 43 267 87 285 95 11 4 56 23 100 40 208 83 410 181
569 277 49 29 91 53 94 53 15 0 381 255 438 305 7 5 43 37 82 70 126 107 544
537 643 660 219 275 399 577 539 905 59 138 119 303 150 410 7 25 16 56 21 70
18 52 54 205 78 335 42 221 57 331 70 505 5 69 13 116 20 118 8 3 11 106 11
368 0 205 -4 363 -9 360 -11 -7 -21 52 -21 127 0 32 -5 91 -11 130 -6 40 -17
117 -25 172 -14 93 -21 128 -46 245 -32 150 -109 396 -157 505 -5 11 -18 40
-28 65 -10 25 -48 104 -85 177 -277 549 -692 1021 -1219 1386 -53 37 -100 67
-103 67 -3 0 -32 17 -63 37 -133 85 -389 212 -540 269 -38 14 -81 31 -98 38
-33 15 -225 77 -295 96 -25 7 -58 17 -75 21 -16 5 -79 20 -140 34 -60 15 -119
28 -130 31 -11 3 -47 9 -80 15 -33 5 -87 14 -120 19 -144 24 -375 49 -563 61
-162 10 -239 10 -390 0 -158 -10 -414 -40 -487 -55 -11 -3 -49 -10 -85 -16
-140 -24 -386 -96 -525 -152 -27 -11 -59 -24 -70 -28 -89 -36 -351 -158 -555
-260 -223 -111 -331 -171 -484 -268 -28 -18 -54 -32 -58 -32 -11 0 -10 57 3
159 5 48 14 122 19 166 21 179 31 266 45 380 8 66 19 161 25 210 13 109 27
228 40 332 5 43 16 137 25 208 8 72 20 165 25 208 5 42 14 115 20 162 5 47 14
122 20 168 5 45 17 138 25 207 28 223 34 279 45 365 22 184 31 255 45 370 24
189 34 269 45 360 5 47 15 123 20 170 18 152 32 250 37 268 4 16 147 17 2818
17 l2813 0 6 28 c3 15 8 370 12 790 l6 762 -3118 -2 c-1716 -1 -3148 -3 -3184
-5z"/>
</g>
</svg>
