<?xml version="1.0" standalone="no"?>
<!DOCTYPE svg PUBLIC "-//W3C//DTD SVG 20010904//EN"
 "http://www.w3.org/TR/2001/REC-SVG-20010904/DTD/svg10.dtd">
<svg version="1.0" xmlns="http://www.w3.org/2000/svg"
 width="897.000000pt" height="1280.000000pt" viewBox="0 0 897.000000 1280.000000"
 preserveAspectRatio="xMidYMid meet">
<metadata>
Created by potrace 1.15, written by Peter Selinger 2001-2017
</metadata>
<g transform="translate(0.000000,1280.000000) scale(0.100000,-0.100000)"
fill="#000000" stroke="none">
<path d="M4650 12794 c-25 -2 -103 -9 -175 -14 -743 -62 -1655 -319 -2344
-661 -345 -171 -616 -342 -905 -570 -168 -133 -483 -446 -616 -614 -317 -397
-506 -794 -581 -1220 -31 -172 -33 -518 -6 -694 101 -640 402 -1124 912 -1463
134 -90 407 -227 562 -284 l101 -37 -93 -104 c-497 -550 -775 -1090 -866
-1685 -30 -191 -32 -551 -5 -733 92 -624 312 -1090 696 -1475 431 -430 1084
-731 1825 -840 645 -95 1339 -44 2137 156 993 249 1819 660 2468 1229 426 374
787 853 983 1305 205 472 271 968 197 1465 -115 770 -483 1360 -1102 1765
-200 131 -556 300 -758 361 -41 12 -77 23 -78 25 -2 1 38 51 88 110 388 452
607 914 671 1414 17 135 15 401 -5 550 -55 416 -210 787 -451 1085 -394 487
-1080 814 -1910 910 -132 15 -637 28 -745 19z m5 -1959 c468 -77 740 -347 784
-781 22 -213 -31 -414 -155 -592 -216 -309 -585 -540 -1101 -688 -285 -82
-505 -116 -743 -116 -458 -1 -795 166 -944 468 -64 130 -89 244 -90 414 -1
122 3 157 22 225 82 287 303 535 657 738 241 138 662 276 1000 326 164 24 441
27 570 6z m760 -3780 c505 -81 844 -405 955 -914 68 -313 39 -586 -90 -846
-231 -466 -739 -793 -1450 -935 -591 -118 -1059 -10 -1366 313 -157 165 -252
367 -300 637 -129 733 335 1357 1216 1634 383 121 735 159 1035 111z"/>
</g>
</svg>
